<svg width="1439" height="250" viewBox="0 0 1439 250" fill="none" xmlns="http://www.w3.org/2000/svg">
<g clip-path="url(#clip0_359_17)">
<path d="M1439 0H0V250H1439V0Z" fill="#598EEB" fill-opacity="0.05"/>
<path d="M189 13.26C176.49 13.26 163.46 42.15 163.46 63C163.46 73.77 176.3 76.5 189 76.5C201.19 76.5 213.23 73.56 213.23 63C213.23 41.94 201.38 13.26 189 13.26Z" stroke="#5C7AEA" stroke-opacity="0.04" stroke-width="2"/>
<path d="M426.6 0C443.27 17.88 438.18 31.79 436.73 63C435.25 94.79 436.69 99.62 420.75 126C407.32 148.22 395.27 140.08 378 160.2C368.23 171.58 366.67 174.4 366.67 189C366.67 206.8 367.98 209.81 378 225C388.76 241.31 408.24 244.27 408.24 252C408.24 257.77 393.12 252 378 252C346.5 252 346.5 252 315 252C286.41 252 268.79 266.87 257.82 252C245.56 235.37 266.34 220.72 268.55 189C270.73 157.72 271.99 156.41 266.59 126C263.72 109.85 259.95 95.87 252 95.87C243.66 95.87 237.18 109.34 234 126C228.28 155.91 232.2 157.62 234.2 189C236.22 220.62 254.36 234.84 242.05 252C231.76 266.34 215.52 252 189 252C157.5 252 157.5 252 126 252C94.5 252 94.5 252 63 252C31.5 252 15.75 267.75 0 252C-15.75 236.25 0 220.5 0 189C0 157.5 0 157.5 0 126C0 94.5 0 94.5 0 63C0 31.5 -15.75 15.75 0 0C15.75 -15.75 31.5 0 63 0C94.5 0 94.5 0 126 0C157.5 0 157.5 0 189 0C220.5 0 220.5 0 252 0C283.5 0 283.5 0 315 0C346.5 0 346.5 0 378 0C402.3 0 413.9 -13.62 426.6 0Z" stroke="#5C7AEA" stroke-opacity="0.04" stroke-width="2"/>
<path d="M444.41 63C457.58 27.92 473.56 31.86 504 2.58998C506.31 0.359984 506.71 0.129984 509.91 -1.62125e-05C538.21 -1.16002 538.45 -1.62125e-05 567 -1.62125e-05C598.5 -1.62125e-05 598.5 -1.62125e-05 630 -1.62125e-05C661.5 -1.62125e-05 661.5 -1.62125e-05 693 -1.62125e-05C724.5 -1.62125e-05 724.5 -1.62125e-05 756 -1.62125e-05C782.44 -1.62125e-05 788.17 -8.42002 808.89 -1.62125e-05C819.67 4.37998 814 25.59 819 25.59C823.99 25.59 818.15 4.35998 828.87 -1.62125e-05C849.65 -8.44002 855.43 -1.62125e-05 882 -1.62125e-05C913.5 -1.62125e-05 913.5 -1.62125e-05 945 -1.62125e-05C976.5 -1.62125e-05 976.5 -1.62125e-05 1008 -1.62125e-05C1039.5 -1.62125e-05 1039.5 -1.62125e-05 1071 -1.62125e-05C1096.13 -1.62125e-05 1102.12 -9.07002 1121.26 -1.62125e-05C1133.62 5.84998 1127.69 29.84 1134 29.84C1140.29 29.84 1134.17 5.81998 1146.46 -1.62125e-05C1165.67 -9.10002 1171.73 -1.62125e-05 1197 -1.62125e-05C1228.5 -1.62125e-05 1228.5 -1.62125e-05 1260 -1.62125e-05C1284.87 -1.62125e-05 1289.57 -7.87002 1309.74 -1.62125e-05C1321.07 4.41998 1311.45 18.94 1323 24.59C1349.58 37.6 1361.1 44.76 1386 37.33C1402.29 32.47 1389.92 9.15998 1405.38 -1.62125e-05C1421.42 -9.50002 1440.08 -12.89 1449 -1.62125e-05C1461.89 18.61 1449 31.5 1449 63C1449 94.5 1449 94.5 1449 126C1449 157.5 1449 157.5 1449 189C1449 220.5 1464.59 236.09 1449 252C1433.71 267.59 1417.84 252.65 1387.24 252C1386.34 251.98 1386.9 250.71 1386 250.66C1354.78 248.89 1353.89 247.74 1323 248.35C1320.22 248.41 1321.44 251.84 1318.66 252C1289.94 253.66 1289.33 252 1260 252C1228.5 252 1228.5 252 1197 252C1173.18 252 1170.41 258.01 1149.37 252C1138.91 249.01 1141.63 234 1134 234C1126.45 234 1129.33 249.05 1119 252C1097.83 258.05 1095 252 1071 252C1039.5 252 1039.5 252 1008 252C976.5 252 976.5 252 945 252C913.5 252 913.5 252 882 252C850.5 252 850.5 252 819 252C799.08 252 795.06 259.95 779.16 252C763.56 244.2 767.08 220.5 756 220.5C745.4 220.5 750.5 244.65 735.81 252C719 260.4 714.4 252 693 252C661.5 252 661.5 252 630 252C598.5 252 598.5 252 567 252C535.5 252 535.5 252 504 252C477.82 252 464.04 266.29 451.64 252C436.71 234.79 447.85 220.37 449.35 189C450.87 157.37 458.91 157.29 457.68 126C456.44 94.29 434.42 89.62 444.41 63Z" stroke="#5C7AEA" stroke-opacity="0.04" stroke-width="2"/>
<path d="M693 38.77C675.07 38.77 658.76 52.3 658.76 63C658.76 72.7 675.44 79.58 693 79.58C715.72 79.58 739.32 72.89 739.32 63C739.32 52.49 715.35 38.77 693 38.77Z" stroke="#5C7AEA" stroke-opacity="0.04" stroke-width="2"/>
<path d="M945 55.84C941.41 55.84 937.5 58.77 937.5 63C937.5 69.85 941.5 78 945 78C948.4 78 951.3 69.99 951.3 63C951.3 58.91 948.31 55.84 945 55.84Z" stroke="#5C7AEA" stroke-opacity="0.04" stroke-width="2"/>
<path d="M1071 56.62C1065.84 56.62 1063.44 57.81 1061.49 63C1050.4 92.5 1041.6 100.56 1044.93 126C1046.35 136.85 1058.12 135.57 1071 135.57C1081.96 135.57 1090.15 135.88 1092.6 126C1099.15 99.6 1097.29 89.63 1089 63C1086.49 54.94 1079.6 56.62 1071 56.62Z" stroke="#5C7AEA" stroke-opacity="0.04" stroke-width="2"/>
<path d="M756 85.68C749.87 85.68 744.28 106.32 744.28 126C744.28 138.77 749.9 150.59 756 150.59C762.22 150.59 768.92 138.86 768.92 126C768.92 106.4 762.19 85.68 756 85.68Z" stroke="#5C7AEA" stroke-opacity="0.04" stroke-width="2"/>
<path d="M1260 108.59C1247.71 108.59 1234.56 117.41 1234.56 126C1234.56 134.49 1247.69 142.75 1260 142.75C1270.75 142.75 1280.67 134.47 1280.67 126C1280.67 117.39 1270.77 108.59 1260 108.59Z" stroke="#5C7AEA" stroke-opacity="0.04" stroke-width="2"/>
<path d="M1386 82.25C1374.79 82.25 1362.84 105.99 1362.84 126C1362.84 138.96 1374.65 148.18 1386 148.18C1396.87 148.18 1407.28 138.76 1407.28 126C1407.28 105.8 1397.01 82.25 1386 82.25Z" stroke="#5C7AEA" stroke-opacity="0.04" stroke-width="2"/>
<path d="M945 164.77C936.91 164.77 935.6 178.12 935.6 189C935.6 194.08 939.43 196.68 945 196.68C959.88 196.68 976.5 196.17 976.5 189C976.5 180.21 957.36 164.77 945 164.77Z" stroke="#5C7AEA" stroke-opacity="0.04" stroke-width="2"/>
<path d="M6.3 63C0.410005 37.05 18.48 23.8 39.9 -2.52724e-05C46.83 -7.70003 51.45 -2.52724e-05 63 -2.52724e-05C94.5 -2.52724e-05 94.5 -2.52724e-05 126 -2.52724e-05C145.02 -2.52724e-05 164.04 -10.23 164.04 -2.52724e-05C164.04 18.57 145.14 28.88 126 57.6C124.15 60.38 124.78 61.09 122.06 63C93.28 83.21 92.35 101.84 63 101.84C34.47 101.84 11.96 87.97 6.3 63Z" stroke="#5C7AEA" stroke-opacity="0.04" stroke-width="2"/>
<path d="M252 58.15C240.39 58.15 229.09 21.28 229.09 8.10623e-06C229.09 -7.79999 240.55 8.10623e-06 252 8.10623e-06C263.82 8.10623e-06 275.63 -7.94999 275.63 8.10623e-06C275.63 21.12 263.66 58.15 252 58.15Z" stroke="#5C7AEA" stroke-opacity="0.04" stroke-width="2"/>
<path d="M334.05 63C343.45 35.06 326.88 19.83 340.71 -4.00543e-05C348.85 -11.67 359.36 -4.00543e-05 378 -4.00543e-05C391.05 -4.00543e-05 399.42 -9.20004 404.1 -4.00543e-05C415.44 22.3 416.65 33.71 410.03 63C403.6 91.46 394.19 89.36 378 115.5C374.68 120.86 373.31 120.16 371 126C358.8 156.91 351.64 156.85 348.98 189C346.43 219.85 370.5 233.59 360.57 252C353.51 265.09 337.78 252 315 252C298.52 252 287.29 262.81 282.05 252C272.02 231.31 284.17 220.51 284.45 189C284.73 157.51 275.28 155.09 283.17 126C290.55 98.8 296.77 99 315 76.43C322.21 67.5 330.59 73.28 334.05 63Z" stroke="#5C7AEA" stroke-opacity="0.04" stroke-width="2"/>
<path d="M840 63C850.61 36.58 834.19 20.48 847.84 1.19209e-05C855.19 -11.02 864.92 1.19209e-05 882 1.19209e-05C913.5 1.19209e-05 913.5 1.19209e-05 945 1.19209e-05C959.7 1.19209e-05 974.4 -4.53999 974.4 1.19209e-05C974.4 5.49001 958.54 8.59001 945 20.05C921.34 40.09 921.58 40.67 900 63C890.08 73.27 889.85 73.33 882 85.24C869.1 104.83 858.51 106.91 858.51 126C858.51 140.12 870.73 138.42 882 151.67C897.52 169.92 895.39 171.98 912.09 189C926.89 204.09 925.83 212.58 945 215.89C973.79 220.87 978.9 215.41 1008 205.58C1018.69 201.97 1015.43 196.28 1024.58 189C1046.93 171.24 1045.94 168.87 1071 155.51C1100.65 139.7 1102.31 142.54 1134 130.67C1141.69 127.79 1147.43 132.97 1149.75 126C1158.68 99.13 1153 94.49 1156.5 63C1160.01 31.49 1150.48 20.67 1163.77 1.19209e-05C1170.73 -10.83 1180.39 1.19209e-05 1197 1.19209e-05C1228.5 1.19209e-05 1228.5 1.19209e-05 1260 1.19209e-05C1274.51 1.19209e-05 1279.93 -9.07999 1289.01 1.19209e-05C1311.43 22.42 1306.01 31.5 1323 63C1331.34 94.5 1323.8 98.94 1339.68 126C1355.3 152.63 1363.31 170.37 1386 170.37C1407.75 170.37 1419.11 152.49 1428.57 126C1438.28 98.8 1422.59 94.29 1424.35 63C1426.14 31.29 1425.47 26.07 1435.67 1.19209e-05C1437.79 -5.42999 1447.84 -5.49999 1449 1.19209e-05C1454.5 26 1449 31.5 1449 63C1449 94.5 1449 94.5 1449 126C1449 157.5 1449 157.5 1449 189C1449 220.5 1459.36 230.86 1449 252C1443.92 262.36 1430.55 258.87 1418.12 252C1399.05 241.45 1406.32 222.81 1386 217.15C1358.76 209.57 1351.68 214.94 1323 225.52C1304.43 232.37 1309.34 244.5 1291.5 252C1277.84 257.74 1275.75 252 1260 252C1228.5 252 1228.5 252 1197 252C1182.78 252 1179.53 259.05 1168.57 252C1148.03 238.8 1151.17 211.5 1134 211.5C1117.01 211.5 1120.51 238.98 1100.25 252C1089.01 259.23 1085.63 252 1071 252C1039.5 252 1039.5 252 1008 252C976.5 252 976.5 252 945 252C913.5 252 913.5 252 882 252C850.5 252 850.5 252 819 252C810.66 252 807.86 257.54 802.32 252C776.36 226.04 759.46 221.98 756 189C752.86 158.98 772.27 157.35 789.12 126C803.77 98.74 800.4 94.82 819 71.79C825.84 63.32 836.19 72.47 840 63Z" stroke="#5C7AEA" stroke-opacity="0.04" stroke-width="2"/>
<path d="M982.8 63C982.8 44.78 996.16 45.99 1008 28C1016.89 14.49 1011.37 5.72996 1024.26 -4.24385e-05C1042.87 -8.27004 1047.63 -4.24385e-05 1071 -4.24385e-05C1087.28 -4.24385e-05 1103.56 -7.32004 1103.56 -4.24385e-05C1103.56 11.02 1089.28 20.63 1071 36.68C1053.39 52.13 1046.93 45.83 1031.77 63C1015.43 81.49 1020.16 108 1008 108C995.68 108 982.8 84.78 982.8 63Z" stroke="#5C7AEA" stroke-opacity="0.04" stroke-width="2"/>
<path d="M151.94 126C160.18 107.05 171.85 99 189 99C202.65 99 208.41 109.51 213.55 126C222.45 154.51 220.26 158 217.08 189C213.79 221 212.53 225.27 200.61 252C198.49 256.77 194.81 252 189 252C157.5 252 157.5 252 126 252C94.5 252 94.5 252 63 252C31.5 252 21 262.5 -4.76837e-07 252C-10.5 246.75 -10.19 222.47 -4.76837e-07 220.5C21.31 216.38 31.59 240.11 63 239.81C94.59 239.51 98.55 235.35 126 219.29C141.98 209.94 144.94 206.7 149.86 189C157.91 160.06 140.61 152.05 151.94 126Z" stroke="#5C7AEA" stroke-opacity="0.04" stroke-width="2"/>
<path d="M1260 87.87C1233.09 87.87 1204.27 107.18 1204.27 126C1204.27 144.59 1233.04 162.68 1260 162.68C1283.55 162.68 1305.28 144.56 1305.28 126C1305.28 107.15 1283.59 87.87 1260 87.87Z" stroke="#5C7AEA" stroke-opacity="0.04" stroke-width="2"/>
<path d="M630 140.7C616.95 140.7 602.66 165.99 602.66 189C602.66 206.99 616.83 222.7 630 222.7C642.58 222.7 654.15 206.81 654.15 189C654.15 165.81 642.7 140.7 630 140.7Z" stroke="#5C7AEA" stroke-opacity="0.04" stroke-width="2"/>
<path d="M37.8 63C37.8 46.85 50.22 25.94 63 25.94C75.95 25.94 89.25 46.95 89.25 63C89.25 74.11 76.04 80.26 63 80.26C50.32 80.26 37.8 74.01 37.8 63Z" stroke="#5C7AEA" stroke-opacity="0.04" stroke-width="2"/>
<path d="M126 12.6C116.93 12.6 105 3.39 105 -1.54972e-06C105 -2.91 115.5 -1.54972e-06 126 -1.54972e-06C130.16 -1.54972e-06 134.32 -2.24 134.32 -1.54972e-06C134.32 4.06 131.59 12.6 126 12.6Z" stroke="#5C7AEA" stroke-opacity="0.04" stroke-width="2"/>
<path d="M370.67 63C368.49 32.63 369.47 29.13 372.86 -1.14441e-05C373.14 -2.37001 375.43 -1.14441e-05 378 -1.14441e-05C379.8 -1.14441e-05 381.46 -1.70001 381.6 -1.14441e-05C384.13 29.8 384.89 32.14 383.34 63C383.09 68.02 381 71.75 378 71.75C374.66 71.75 371.06 68.5 370.67 63Z" stroke="#5C7AEA" stroke-opacity="0.04" stroke-width="2"/>
<path d="M486.97 63C486.97 53.38 492.98 49.49 504 45.74C532.99 35.87 539.5 30.2 567 35.76C582.2 38.83 586.24 46.84 589.4 63C595.06 91.96 588.73 94.72 584.64 126C580.5 157.72 580.68 158.42 572.94 189C571.86 193.27 569.89 192.28 567 195.7C543.29 223.78 545.69 228.82 519.75 252C514.19 256.97 511.88 252 504 252C498.27 252 493.83 256.83 492.55 252C485.48 225.33 483.57 219.11 487.3 189C489.3 172.86 492.04 170.94 504 159.51C525 139.44 553.22 143.01 553.22 126C553.22 108.75 525.47 111.42 504 91C492.35 79.92 486.97 76.01 486.97 63Z" stroke="#5C7AEA" stroke-opacity="0.04" stroke-width="2"/>
<path d="M630 24.94C614.09 24.94 600.08 7.05001 600.08 1.35899e-05C600.08 -5.41999 615.04 1.35899e-05 630 1.35899e-05C650.64 1.35899e-05 671.28 -5.74999 671.28 1.35899e-05C671.28 6.72001 649.69 24.94 630 24.94Z" stroke="#5C7AEA" stroke-opacity="0.04" stroke-width="2"/>
<path d="M756 19.22C738.19 19.22 715.5 5.04999 715.5 -5.72205e-06C715.5 -4.56001 735.75 -5.72205e-06 756 -5.72205e-06C763 -5.72205e-06 770 -3.56001 770 -5.72205e-06C770 6.04999 765.44 19.22 756 19.22Z" stroke="#5C7AEA" stroke-opacity="0.04" stroke-width="2"/>
<path d="M882 38.18C870.16 38.18 866.82 13.94 866.82 -4.19617e-05C866.82 -5.15004 874.41 -4.19617e-05 882 -4.19617e-05C902.33 -4.19617e-05 922.65 -8.05004 922.65 -4.19617e-05C922.65 11.04 898.07 38.18 882 38.18Z" stroke="#5C7AEA" stroke-opacity="0.04" stroke-width="2"/>
<path d="M1071 16.75C1061.08 16.75 1049.66 4.68999 1049.66 -1.46627e-05C1049.66 -3.69001 1060.33 -1.46627e-05 1071 -1.46627e-05C1078.43 -1.46627e-05 1085.87 -3.34001 1085.87 -1.46627e-05C1085.87 5.02999 1079.19 16.75 1071 16.75Z" stroke="#5C7AEA" stroke-opacity="0.04" stroke-width="2"/>
<path d="M1197 37.15C1183.39 23.74 1181.08 13.33 1181.08 -4.07696e-05C1181.08 -5.25004 1189.04 -4.07696e-05 1197 -4.07696e-05C1228.5 -4.07696e-05 1228.5 -4.07696e-05 1260 -4.07696e-05C1264.14 -4.07696e-05 1267.68 -3.66004 1268.29 -4.07696e-05C1272.93 27.84 1274.02 34.53 1270.5 63C1269.87 68.1 1265.36 67.14 1260 67.14C1252.61 67.14 1251.99 66.33 1245 63C1220.49 51.33 1215.35 55.24 1197 37.15Z" stroke="#5C7AEA" stroke-opacity="0.04" stroke-width="2"/>
<path d="M182.82 126C183.64 122.38 186.14 121.5 189 121.5C191.27 121.5 192.61 123.05 193.09 126C198.09 156.8 201.32 158.09 199.96 189C199.28 204.42 195.38 218.65 189 218.65C182.27 218.65 174.79 204.93 173.73 189C171.7 158.6 176 156.13 182.82 126Z" stroke="#5C7AEA" stroke-opacity="0.04" stroke-width="2"/>
<path d="M299.75 126C302.01 112.58 305.73 102.25 315 102.25C326.77 102.25 338.9 110.41 341.83 126C347.04 153.79 334.99 157.32 331.28 189C327.61 220.32 333.89 225.55 327.06 252C325.75 257.05 321.03 252 315 252C310.64 252 307.17 255.82 306.28 252C299.85 224.32 302 220.57 300.36 189C298.73 157.57 294.69 155.96 299.75 126Z" stroke="#5C7AEA" stroke-opacity="0.04" stroke-width="2"/>
<path d="M659.84 126C662.05 112.65 677.61 112.74 693 112.74C701.52 112.74 705.22 116.93 707.65 126C715.43 155.06 716.43 158.05 713.43 189C710.32 221.05 705.27 221.62 695.42 252C695.06 253.12 694.21 252 693 252C681.19 252 671.08 260.5 669.38 252C664.78 229 682.74 219.94 680.4 189C677.97 156.94 655.75 150.78 659.84 126Z" stroke="#5C7AEA" stroke-opacity="0.04" stroke-width="2"/>
<path d="M809.31 126C809.31 116.59 813.6 108.42 819 108.42C824.85 108.42 831.81 116.23 831.81 126C831.81 143.92 824.69 163.8 819 163.8C813.44 163.8 809.31 144.28 809.31 126Z" stroke="#5C7AEA" stroke-opacity="0.04" stroke-width="2"/>
<path d="M852.6 189C852.6 181.3 868.61 180.83 882 180.83C886.6 180.83 888.58 184.17 888.58 189C888.58 202.04 889.43 216.56 882 216.56C871.44 216.56 852.6 199.17 852.6 189Z" stroke="#5C7AEA" stroke-opacity="0.04" stroke-width="2"/>
<path d="M1052.21 189C1060.73 181.19 1060.18 175.44 1071 175.44C1101.08 175.44 1131.69 172.16 1134 189C1136.94 210.44 1109.42 224.08 1081.5 252C1077.92 255.58 1076.25 252 1071 252C1039.5 252 1039.5 252 1008 252C976.5 252 976.5 252 945 252C922.64 252 900.29 256.08 900.29 252C900.29 247.63 921.77 239.15 945 235.1C975.63 229.76 981.09 244.78 1008 233.21C1034.69 221.73 1029.23 210.07 1052.21 189Z" stroke="#5C7AEA" stroke-opacity="0.04" stroke-width="2"/>
<path d="M1239 189C1247.95 182.98 1250.28 187.59 1260 182.62C1292.28 166.12 1293.37 144.37 1323 146.05C1349.74 147.56 1372.74 173.13 1372.74 189C1372.74 201.46 1344.81 190.03 1323 202.7C1290.61 221.53 1294.15 228.67 1264.34 252C1262.65 253.32 1262.17 252 1260 252C1228.5 252 1228.5 252 1197 252C1192.39 252 1187.78 255.3 1187.78 252C1187.78 241.8 1188.29 235.72 1197 225C1213.9 204.22 1216.45 204.17 1239 189Z" stroke="#5C7AEA" stroke-opacity="0.04" stroke-width="2"/>
<path d="M120 252C120 251.37 122.99 249.58 126 249.58C129.14 249.58 132.3 251.37 132.3 252C132.3 252.58 129.15 252 126 252C123 252 120 252.58 120 252Z" stroke="#5C7AEA" stroke-opacity="0.04" stroke-width="2"/>
</g>
<defs>
<clipPath id="clip0_359_17">
<rect width="1439" height="250" fill="white"/>
</clipPath>
</defs>
</svg>
