<?xml version="1.0" standalone="no"?>
<svg xmlns:xlink="http://www.w3.org/1999/xlink" id="wave" style="transform:rotate(0deg); transition: 0.3s" viewBox="0 0 1440 290" version="1.1" xmlns="http://www.w3.org/2000/svg"><defs><linearGradient id="sw-gradient-0" x1="0" x2="0" y1="1" y2="0"><stop stop-color="rgba(61, 86, 178, 0.62)" offset="0%"/><stop stop-color="rgba(61, 86, 178, 0.84)" offset="100%"/></linearGradient></defs><path style="transform:translate(0, 0px); opacity:1" fill="url(#sw-gradient-0)" d="M0,0L60,4.8C120,10,240,19,360,58C480,97,600,164,720,159.5C840,155,960,77,1080,82.2C1200,87,1320,174,1440,203C1560,232,1680,203,1800,203C1920,203,2040,232,2160,222.3C2280,213,2400,164,2520,164.3C2640,164,2760,213,2880,236.8C3000,261,3120,261,3240,241.7C3360,222,3480,184,3600,178.8C3720,174,3840,203,3960,217.5C4080,232,4200,232,4320,193.3C4440,155,4560,77,4680,72.5C4800,68,4920,135,5040,140.2C5160,145,5280,87,5400,67.7C5520,48,5640,68,5760,96.7C5880,126,6000,164,6120,164.3C6240,164,6360,126,6480,135.3C6600,145,6720,203,6840,188.5C6960,174,7080,87,7200,67.7C7320,48,7440,97,7560,140.2C7680,184,7800,222,7920,203C8040,184,8160,106,8280,91.8C8400,77,8520,126,8580,149.8L8640,174L8640,290L8580,290C8520,290,8400,290,8280,290C8160,290,8040,290,7920,290C7800,290,7680,290,7560,290C7440,290,7320,290,7200,290C7080,290,6960,290,6840,290C6720,290,6600,290,6480,290C6360,290,6240,290,6120,290C6000,290,5880,290,5760,290C5640,290,5520,290,5400,290C5280,290,5160,290,5040,290C4920,290,4800,290,4680,290C4560,290,4440,290,4320,290C4200,290,4080,290,3960,290C3840,290,3720,290,3600,290C3480,290,3360,290,3240,290C3120,290,3000,290,2880,290C2760,290,2640,290,2520,290C2400,290,2280,290,2160,290C2040,290,1920,290,1800,290C1680,290,1560,290,1440,290C1320,290,1200,290,1080,290C960,290,840,290,720,290C600,290,480,290,360,290C240,290,120,290,60,290L0,290Z"/><defs><linearGradient id="sw-gradient-1" x1="0" x2="0" y1="1" y2="0"><stop stop-color="rgba(61, 86, 178, 0.77)" offset="0%"/><stop stop-color="rgba(61, 86, 178, 0.66)" offset="100%"/></linearGradient></defs><path style="transform:translate(0, 50px); opacity:0.9" fill="url(#sw-gradient-1)" d="M0,116L60,106.3C120,97,240,77,360,77.3C480,77,600,97,720,111.2C840,126,960,135,1080,120.8C1200,106,1320,68,1440,87C1560,106,1680,184,1800,193.3C1920,203,2040,145,2160,140.2C2280,135,2400,184,2520,198.2C2640,213,2760,193,2880,159.5C3000,126,3120,77,3240,67.7C3360,58,3480,87,3600,96.7C3720,106,3840,97,3960,77.3C4080,58,4200,29,4320,58C4440,87,4560,174,4680,207.8C4800,242,4920,222,5040,178.8C5160,135,5280,68,5400,33.8C5520,0,5640,0,5760,43.5C5880,87,6000,174,6120,178.8C6240,184,6360,106,6480,62.8C6600,19,6720,10,6840,24.2C6960,39,7080,77,7200,106.3C7320,135,7440,155,7560,178.8C7680,203,7800,232,7920,212.7C8040,193,8160,126,8280,82.2C8400,39,8520,19,8580,9.7L8640,0L8640,290L8580,290C8520,290,8400,290,8280,290C8160,290,8040,290,7920,290C7800,290,7680,290,7560,290C7440,290,7320,290,7200,290C7080,290,6960,290,6840,290C6720,290,6600,290,6480,290C6360,290,6240,290,6120,290C6000,290,5880,290,5760,290C5640,290,5520,290,5400,290C5280,290,5160,290,5040,290C4920,290,4800,290,4680,290C4560,290,4440,290,4320,290C4200,290,4080,290,3960,290C3840,290,3720,290,3600,290C3480,290,3360,290,3240,290C3120,290,3000,290,2880,290C2760,290,2640,290,2520,290C2400,290,2280,290,2160,290C2040,290,1920,290,1800,290C1680,290,1560,290,1440,290C1320,290,1200,290,1080,290C960,290,840,290,720,290C600,290,480,290,360,290C240,290,120,290,60,290L0,290Z"/></svg>