<svg width="783" height="708" viewBox="0 0 783 708" fill="none" xmlns="http://www.w3.org/2000/svg">
<path d="M531.741 693.758C617.413 680.741 686.756 628.004 762.375 585.685C843.45 540.312 953.848 521.707 991.19 436.634C1028.54 351.54 977.984 254.514 946.046 167.243C919.318 94.2088 860.528 42.7748 822.272 -24.9362C771.579 -114.662 776.703 -248.023 684.934 -294.916C595.301 -340.717 490.728 -270.041 393.487 -244.04C293.604 -217.333 180.479 -214.065 107.745 -140.583C33.6237 -65.7002 -11.8683 46.3988 2.71374 150.748C16.6547 250.509 137.503 296.146 181.44 386.788C223.768 474.111 178.207 599.399 251.191 663.355C323.398 726.631 436.821 708.18 531.741 693.758Z" fill="#182FBA"/>
</svg>
