<svg width="445" height="892" viewBox="0 0 445 892" fill="none" xmlns="http://www.w3.org/2000/svg">
<path d="M-27.4629 879.632C58.1762 868.225 127.493 822.01 203.083 784.924C284.127 745.162 394.482 728.857 431.81 654.304C469.147 579.733 418.609 494.706 386.683 418.227C359.966 354.224 301.198 309.15 262.957 249.813C212.283 171.182 217.405 54.3127 125.671 13.2185C36.0727 -26.9187 -68.4603 35.0175 -165.664 57.8032C-265.509 81.2076 -378.59 84.0714 -451.297 148.467C-525.389 214.09 -570.864 312.326 -556.287 403.771C-542.352 491.196 -421.55 531.189 -377.63 610.622C-335.318 687.147 -380.862 796.942 -307.906 852.989C-235.726 908.44 -122.347 892.271 -27.4629 879.632Z" fill="#182FBA"/>
</svg>
