<svg width="70" height="70" viewBox="0 0 70 70" fill="none" xmlns="http://www.w3.org/2000/svg">
<circle cx="35" cy="35" r="35" fill="#598EEB"/>
<path d="M54.5417 22C54.4706 21.734 54.3474 21.4847 54.1793 21.2666C54.0113 21.0484 53.8016 20.8658 53.5625 20.7292L42.7292 14.4792C42.4926 14.3406 42.2311 14.25 41.9595 14.2127C41.6879 14.1754 41.4116 14.192 41.1464 14.2617C40.8813 14.3314 40.6325 14.4527 40.4143 14.6187C40.1961 14.7847 40.0129 14.9922 39.875 15.2292L35 23.6875L30.125 15.2292C29.9872 14.9922 29.8039 14.7847 29.5857 14.6187C29.3676 14.4527 29.1188 14.3314 28.8536 14.2617C28.5885 14.192 28.3122 14.1754 28.0406 14.2127C27.7689 14.25 27.5074 14.3406 27.2708 14.4792L16.4375 20.7292C16.1984 20.8658 15.9888 21.0484 15.8207 21.2666C15.6526 21.4847 15.5295 21.734 15.4583 22C15.3205 22.528 15.3953 23.0891 15.6667 23.5625L24 37.7917C23.0703 39.4949 22.5563 41.3937 22.5 43.3333C22.4951 45.2256 22.9198 47.0943 23.7421 48.7985C24.5645 50.5027 25.7631 51.998 27.2474 53.1716C28.7318 54.3452 30.4632 55.1665 32.3112 55.5735C34.1592 55.9805 36.0754 55.9627 37.9155 55.5213C39.7556 55.08 41.4714 54.2266 42.9337 53.0256C44.396 51.8246 45.5665 50.3072 46.357 48.588C47.1475 46.8688 47.5373 44.9925 47.4971 43.1007C47.457 41.2088 46.9878 39.3508 46.125 37.6667L54.25 23.5833C54.4012 23.352 54.5049 23.0928 54.555 22.821C54.605 22.5492 54.6005 22.2701 54.5417 22ZM20.4167 23.2917L27.625 19.125L34.3333 30.8333C31.4738 31.01 28.7642 32.1734 26.6667 34.125L20.4167 23.2917ZM35 51.6667C32.7899 51.6667 30.6703 50.7887 29.1075 49.2259C27.5447 47.6631 26.6667 45.5435 26.6667 43.3333C26.6667 41.1232 27.5447 39.0036 29.1075 37.4408C30.6703 35.878 32.7899 35 35 35C37.2101 35 39.3298 35.878 40.8926 37.4408C42.4554 39.0036 43.3333 41.1232 43.3333 43.3333C43.3333 45.5435 42.4554 47.6631 40.8926 49.2259C39.3298 50.7887 37.2101 51.6667 35 51.6667ZM43.3333 34.0625C42.2023 33.0294 40.888 32.2168 39.4583 31.6667L37.4167 27.8542L42.4583 19.125L49.6667 23.2917L43.3333 34.0625Z" fill="white"/>
</svg>
