<svg width="60" height="60" viewBox="0 0 60 60" fill="none" xmlns="http://www.w3.org/2000/svg">
<circle cx="30" cy="30" r="30" fill="#14279B"/>
<path d="M33 25.5H27C26.6022 25.5 26.2206 25.658 25.9393 25.9393C25.658 26.2206 25.5 26.6022 25.5 27V45C25.5 45.3978 25.658 45.7794 25.9393 46.0607C26.2206 46.342 26.6022 46.5 27 46.5H33C33.3978 46.5 33.7794 46.342 34.0607 46.0607C34.342 45.7794 34.5 45.3978 34.5 45V27C34.5 26.6022 34.342 26.2206 34.0607 25.9393C33.7794 25.658 33.3978 25.5 33 25.5ZM31.5 43.5H28.5V28.5H31.5V43.5ZM45 13.5H39C38.6022 13.5 38.2206 13.658 37.9393 13.9393C37.658 14.2206 37.5 14.6022 37.5 15V45C37.5 45.3978 37.658 45.7794 37.9393 46.0607C38.2206 46.342 38.6022 46.5 39 46.5H45C45.3978 46.5 45.7794 46.342 46.0607 46.0607C46.342 45.7794 46.5 45.3978 46.5 45V15C46.5 14.6022 46.342 14.2206 46.0607 13.9393C45.7794 13.658 45.3978 13.5 45 13.5ZM43.5 43.5H40.5V16.5H43.5V43.5ZM21 34.5H15C14.6022 34.5 14.2206 34.658 13.9393 34.9393C13.658 35.2206 13.5 35.6022 13.5 36V45C13.5 45.3978 13.658 45.7794 13.9393 46.0607C14.2206 46.342 14.6022 46.5 15 46.5H21C21.3978 46.5 21.7794 46.342 22.0607 46.0607C22.342 45.7794 22.5 45.3978 22.5 45V36C22.5 35.6022 22.342 35.2206 22.0607 34.9393C21.7794 34.658 21.3978 34.5 21 34.5ZM19.5 43.5H16.5V37.5H19.5V43.5Z" fill="white"/>
</svg>
