<svg width="60" height="60" viewBox="0 0 60 60" fill="none" xmlns="http://www.w3.org/2000/svg">
<circle cx="30" cy="30" r="30" fill="#14279B"/>
<path d="M40.5 20.25H31.08L30.6 18.75C30.2888 17.8698 29.7116 17.1083 28.9484 16.5707C28.1851 16.0332 27.2735 15.7464 26.34 15.75H19.5C18.3065 15.75 17.1619 16.2241 16.318 17.068C15.4741 17.9119 15 19.0565 15 20.25V39.75C15 40.9435 15.4741 42.0881 16.318 42.932C17.1619 43.7759 18.3065 44.25 19.5 44.25H40.5C41.6935 44.25 42.8381 43.7759 43.682 42.932C44.5259 42.0881 45 40.9435 45 39.75V24.75C45 23.5565 44.5259 22.4119 43.682 21.568C42.8381 20.7241 41.6935 20.25 40.5 20.25ZM42 39.75C42 40.1478 41.842 40.5294 41.5607 40.8107C41.2794 41.092 40.8978 41.25 40.5 41.25H19.5C19.1022 41.25 18.7206 41.092 18.4393 40.8107C18.158 40.5294 18 40.1478 18 39.75V20.25C18 19.8522 18.158 19.4706 18.4393 19.1893C18.7206 18.908 19.1022 18.75 19.5 18.75H26.34C26.6545 18.7492 26.9612 18.8472 27.2169 19.0303C27.4727 19.2133 27.6644 19.4721 27.765 19.77L28.575 22.23C28.6756 22.5279 28.8673 22.7867 29.1231 22.9697C29.3788 23.1528 29.6855 23.2508 30 23.25H40.5C40.8978 23.25 41.2794 23.408 41.5607 23.6893C41.842 23.9706 42 24.3522 42 24.75V39.75Z" fill="white"/>
</svg>
