<svg width="60" height="60" viewBox="0 0 60 60" fill="none" xmlns="http://www.w3.org/2000/svg">
<circle cx="30" cy="30" r="30" fill="#14279B"/>
<path d="M43.98 19.575L34.98 16.575H34.875C34.8052 16.568 34.7348 16.568 34.665 16.575H34.32H34.125H34.02L25.5 19.5L16.98 16.575C16.7544 16.5006 16.5144 16.4809 16.2797 16.5174C16.045 16.5539 15.8223 16.6456 15.63 16.785C15.4361 16.923 15.2779 17.1052 15.1684 17.3165C15.0588 17.5277 15.0011 17.762 15 18V39C14.9992 39.3145 15.0972 39.6212 15.2803 39.8769C15.4633 40.1326 15.7221 40.3244 16.02 40.425L25.02 43.425C25.3222 43.5235 25.6478 43.5235 25.95 43.425L34.5 40.575L43.02 43.5C43.1793 43.5216 43.3407 43.5216 43.5 43.5C43.8136 43.5044 44.1198 43.4041 44.37 43.215C44.5639 43.077 44.7221 42.8948 44.8317 42.6835C44.9412 42.4723 44.9989 42.238 45 42V21C45.0008 20.6855 44.9028 20.3788 44.7197 20.123C44.5367 19.8673 44.2779 19.6756 43.98 19.575ZM24 39.915L18 37.92V20.085L24 22.08V39.915ZM33 37.92L27 39.915V22.08L33 20.085V37.92ZM42 39.915L36 37.92V20.085L42 22.08V39.915Z" fill="white"/>
</svg>
