<svg width="60" height="60" viewBox="0 0 60 60" fill="none" xmlns="http://www.w3.org/2000/svg">
<circle cx="30" cy="30" r="30" fill="#14279B"/>
<path d="M30 40.5C30.2967 40.5 30.5867 40.412 30.8334 40.2472C31.08 40.0824 31.2723 39.8481 31.3858 39.574C31.4994 39.2999 31.5291 38.9983 31.4712 38.7074C31.4133 38.4164 31.2704 38.1491 31.0607 37.9393C30.8509 37.7296 30.5836 37.5867 30.2926 37.5288C30.0017 37.4709 29.7001 37.5006 29.426 37.6142C29.1519 37.7277 28.9176 37.92 28.7528 38.1666C28.588 38.4133 28.5 38.7033 28.5 39C28.5 39.3978 28.658 39.7794 28.9393 40.0607C29.2206 40.342 29.6022 40.5 30 40.5ZM37.5 40.5C37.7967 40.5 38.0867 40.412 38.3334 40.2472C38.58 40.0824 38.7723 39.8481 38.8858 39.574C38.9994 39.2999 39.0291 38.9983 38.9712 38.7074C38.9133 38.4164 38.7704 38.1491 38.5607 37.9393C38.3509 37.7296 38.0836 37.5867 37.7926 37.5288C37.5017 37.4709 37.2001 37.5006 36.926 37.6142C36.6519 37.7277 36.4176 37.92 36.2528 38.1666C36.088 38.4133 36 38.7033 36 39C36 39.3978 36.158 39.7794 36.4393 40.0607C36.7206 40.342 37.1022 40.5 37.5 40.5ZM37.5 34.5C37.7967 34.5 38.0867 34.412 38.3334 34.2472C38.58 34.0824 38.7723 33.8481 38.8858 33.574C38.9994 33.2999 39.0291 32.9983 38.9712 32.7074C38.9133 32.4164 38.7704 32.1491 38.5607 31.9393C38.3509 31.7296 38.0836 31.5867 37.7926 31.5288C37.5017 31.4709 37.2001 31.5006 36.926 31.6142C36.6519 31.7277 36.4176 31.92 36.2528 32.1666C36.088 32.4133 36 32.7033 36 33C36 33.3978 36.158 33.7794 36.4393 34.0607C36.7206 34.342 37.1022 34.5 37.5 34.5ZM30 34.5C30.2967 34.5 30.5867 34.412 30.8334 34.2472C31.08 34.0824 31.2723 33.8481 31.3858 33.574C31.4994 33.2999 31.5291 32.9983 31.4712 32.7074C31.4133 32.4164 31.2704 32.1491 31.0607 31.9393C30.8509 31.7296 30.5836 31.5867 30.2926 31.5288C30.0017 31.4709 29.7001 31.5006 29.426 31.6142C29.1519 31.7277 28.9176 31.92 28.7528 32.1666C28.588 32.4133 28.5 32.7033 28.5 33C28.5 33.3978 28.658 33.7794 28.9393 34.0607C29.2206 34.342 29.6022 34.5 30 34.5ZM40.5 16.5H39V15C39 14.6022 38.842 14.2206 38.5607 13.9393C38.2794 13.658 37.8978 13.5 37.5 13.5C37.1022 13.5 36.7206 13.658 36.4393 13.9393C36.158 14.2206 36 14.6022 36 15V16.5H24V15C24 14.6022 23.842 14.2206 23.5607 13.9393C23.2794 13.658 22.8978 13.5 22.5 13.5C22.1022 13.5 21.7206 13.658 21.4393 13.9393C21.158 14.2206 21 14.6022 21 15V16.5H19.5C18.3065 16.5 17.1619 16.9741 16.318 17.818C15.4741 18.6619 15 19.8065 15 21V42C15 43.1935 15.4741 44.3381 16.318 45.182C17.1619 46.0259 18.3065 46.5 19.5 46.5H40.5C41.6935 46.5 42.8381 46.0259 43.682 45.182C44.5259 44.3381 45 43.1935 45 42V21C45 19.8065 44.5259 18.6619 43.682 17.818C42.8381 16.9741 41.6935 16.5 40.5 16.5ZM42 42C42 42.3978 41.842 42.7794 41.5607 43.0607C41.2794 43.342 40.8978 43.5 40.5 43.5H19.5C19.1022 43.5 18.7206 43.342 18.4393 43.0607C18.158 42.7794 18 42.3978 18 42V28.5H42V42ZM42 25.5H18V21C18 20.6022 18.158 20.2206 18.4393 19.9393C18.7206 19.658 19.1022 19.5 19.5 19.5H21V21C21 21.3978 21.158 21.7794 21.4393 22.0607C21.7206 22.342 22.1022 22.5 22.5 22.5C22.8978 22.5 23.2794 22.342 23.5607 22.0607C23.842 21.7794 24 21.3978 24 21V19.5H36V21C36 21.3978 36.158 21.7794 36.4393 22.0607C36.7206 22.342 37.1022 22.5 37.5 22.5C37.8978 22.5 38.2794 22.342 38.5607 22.0607C38.842 21.7794 39 21.3978 39 21V19.5H40.5C40.8978 19.5 41.2794 19.658 41.5607 19.9393C41.842 20.2206 42 20.6022 42 21V25.5ZM22.5 34.5C22.7967 34.5 23.0867 34.412 23.3334 34.2472C23.58 34.0824 23.7723 33.8481 23.8858 33.574C23.9994 33.2999 24.0291 32.9983 23.9712 32.7074C23.9133 32.4164 23.7704 32.1491 23.5607 31.9393C23.3509 31.7296 23.0836 31.5867 22.7926 31.5288C22.5017 31.4709 22.2001 31.5006 21.926 31.6142C21.6519 31.7277 21.4176 31.92 21.2528 32.1666C21.088 32.4133 21 32.7033 21 33C21 33.3978 21.158 33.7794 21.4393 34.0607C21.7206 34.342 22.1022 34.5 22.5 34.5ZM22.5 40.5C22.7967 40.5 23.0867 40.412 23.3334 40.2472C23.58 40.0824 23.7723 39.8481 23.8858 39.574C23.9994 39.2999 24.0291 38.9983 23.9712 38.7074C23.9133 38.4164 23.7704 38.1491 23.5607 37.9393C23.3509 37.7296 23.0836 37.5867 22.7926 37.5288C22.5017 37.4709 22.2001 37.5006 21.926 37.6142C21.6519 37.7277 21.4176 37.92 21.2528 38.1666C21.088 38.4133 21 38.7033 21 39C21 39.3978 21.158 39.7794 21.4393 40.0607C21.7206 40.342 22.1022 40.5 22.5 40.5Z" fill="white"/>
</svg>
