<svg width="70" height="70" viewBox="0 0 70 70" fill="none" xmlns="http://www.w3.org/2000/svg">
<circle cx="35" cy="35" r="35" fill="#F1C238"/>
<path d="M24.566 40.2125C24.2924 40.2124 24.0215 40.2662 23.7687 40.3709C23.5159 40.4756 23.2862 40.629 23.0927 40.8225C22.8993 41.016 22.7458 41.2457 22.6411 41.4985C22.5365 41.7513 22.4826 42.0222 22.4827 42.2958V46.0089C19.7974 42.972 18.3154 39.058 18.316 35.0041C18.3156 34.3915 18.3523 33.7793 18.4259 33.1711C18.4596 32.8991 18.4393 32.6231 18.3662 32.3589C18.2931 32.0948 18.1686 31.8477 17.9998 31.6317C17.8309 31.4158 17.6212 31.2353 17.3825 31.1006C17.1438 30.9658 16.8809 30.8795 16.6088 30.8466C16.3367 30.8137 16.0608 30.8348 15.7968 30.9087C15.5329 30.9826 15.2862 31.1079 15.0707 31.2773C14.8553 31.4467 14.6754 31.657 14.5414 31.8961C14.4074 32.1352 14.3219 32.3984 14.2897 32.6706C14.1954 33.4448 14.1485 34.2241 14.1494 35.0041C14.1522 39.9753 15.9389 44.7804 19.1845 48.5458H16.2327C15.6802 48.5458 15.1503 48.7653 14.7596 49.156C14.3689 49.5467 14.1494 50.0766 14.1494 50.6291C14.1494 51.1817 14.3689 51.7116 14.7596 52.1023C15.1503 52.493 15.6802 52.7125 16.2327 52.7125H24.566C24.8919 52.7084 25.212 52.6265 25.4998 52.4736C25.7876 52.3208 26.0346 52.1014 26.2205 51.8337C26.2448 51.8017 26.2758 51.7779 26.2984 51.7441C26.3123 51.7234 26.3127 51.6988 26.3256 51.6777C26.4249 51.51 26.4993 51.3287 26.5464 51.1396C26.5773 51.0334 26.5992 50.9247 26.6119 50.8148C26.6179 50.7505 26.6494 50.6951 26.6494 50.6292V42.2959C26.6495 42.0222 26.5957 41.7513 26.491 41.4985C26.3863 41.2457 26.2329 41.016 26.0394 40.8225C25.8459 40.629 25.6162 40.4756 25.3634 40.3709C25.1106 40.2662 24.8396 40.2124 24.566 40.2125ZM27.691 22.5041H23.9776C27.0146 19.8189 30.9288 18.337 34.9827 18.3375C35.5951 18.336 36.2069 18.3727 36.8148 18.4473C37.0865 18.4803 37.362 18.4595 37.6257 18.386C37.8894 18.3125 38.136 18.1878 38.3514 18.019C38.5669 17.8502 38.747 17.6406 38.8815 17.4022C39.0159 17.1638 39.1021 16.9012 39.1351 16.6295C39.1681 16.3578 39.1473 16.0822 39.0738 15.8186C39.0003 15.5549 38.8756 15.3083 38.7068 15.0928C38.538 14.8774 38.3284 14.6973 38.09 14.5628C37.8516 14.4283 37.589 14.3422 37.3173 14.3092C36.5426 14.2157 35.763 14.1695 34.9827 14.1708C30.0116 14.1735 25.2065 15.96 21.441 19.2056V16.2541C21.441 15.7016 21.2215 15.1717 20.8308 14.781C20.4401 14.3903 19.9102 14.1708 19.3577 14.1708C18.8052 14.1708 18.2753 14.3903 17.8846 14.781C17.4939 15.1717 17.2744 15.7016 17.2744 16.2541V24.5875C17.2875 24.7252 17.3149 24.8611 17.3563 24.9931L17.3568 24.9957C17.4074 25.252 17.5072 25.4961 17.6509 25.7144L17.6747 25.7496C17.8123 25.9498 17.9849 26.1237 18.184 26.2628C18.2068 26.2795 18.2181 26.305 18.2418 26.3209C18.2715 26.3406 18.3052 26.3469 18.3356 26.3649C18.4538 26.436 18.579 26.4947 18.7092 26.5399C18.8852 26.6012 19.0687 26.6382 19.2547 26.65C19.2908 26.6519 19.3212 26.6709 19.3577 26.6709H27.691C28.2436 26.6709 28.7735 26.4514 29.1642 26.0607C29.5549 25.67 29.7744 25.1401 29.7744 24.5875C29.7744 24.035 29.5549 23.5051 29.1642 23.1144C28.7735 22.7237 28.2436 22.5042 27.691 22.5042V22.5041ZM52.6086 45.0127C52.5581 44.7562 52.4582 44.512 52.3144 44.2937L52.2909 44.2587C52.1531 44.0584 51.9804 43.8845 51.7811 43.7453C51.7583 43.7288 51.7472 43.7031 51.7236 43.6873C51.7011 43.6724 51.6744 43.6719 51.6515 43.6579C51.3873 43.511 51.0977 43.4153 50.7979 43.3758C50.7321 43.3695 50.6752 43.3374 50.6077 43.3374H42.2744C41.7218 43.3374 41.1919 43.5569 40.8012 43.9476C40.4105 44.3383 40.191 44.8682 40.191 45.4207C40.191 45.9732 40.4105 46.5031 40.8012 46.8938C41.1919 47.2845 41.7218 47.504 42.2744 47.504H45.9877C42.9507 50.1892 39.0366 51.6712 34.9827 51.6707C34.3703 51.6715 33.7584 51.6341 33.1506 51.5588C32.6019 51.4922 32.0491 51.6462 31.614 51.9872C31.1788 52.3281 30.8969 52.8279 30.8303 53.3766C30.7636 53.9254 30.9177 54.4781 31.2586 54.9133C31.5995 55.3484 32.0993 55.6304 32.6481 55.697C33.4228 55.7904 34.2024 55.8373 34.9827 55.8374C39.9538 55.8347 44.7589 54.0481 48.5244 50.8026V53.7541C48.5244 54.3067 48.7439 54.8366 49.1346 55.2273C49.5253 55.618 50.0552 55.8375 50.6077 55.8375C51.1602 55.8375 51.6901 55.618 52.0808 55.2273C52.4715 54.8366 52.691 54.3067 52.691 53.7541V45.4208C52.6779 45.2831 52.6505 45.1472 52.6091 45.0152L52.6086 45.0127ZM53.7327 21.4625C54.2852 21.4625 54.8151 21.243 55.2058 20.8523C55.5965 20.4616 55.816 19.9317 55.816 19.3791C55.816 18.8266 55.5965 18.2967 55.2058 17.906C54.8151 17.5153 54.2852 17.2958 53.7327 17.2958H45.3994C45.2637 17.3089 45.1298 17.3359 44.9997 17.3764L44.9858 17.3792C44.7328 17.4298 44.4919 17.5285 44.2761 17.6699L44.2352 17.6975C44.036 17.8349 43.8629 18.0069 43.7242 18.2054C43.7078 18.2279 43.6825 18.2389 43.667 18.2622C43.6521 18.2846 43.6516 18.311 43.6376 18.3338C43.4889 18.5996 43.3925 18.8914 43.3535 19.1935C43.3476 19.2578 43.316 19.3133 43.316 19.3791V27.7125C43.316 28.265 43.5355 28.7949 43.9262 29.1856C44.3169 29.5763 44.8468 29.7958 45.3994 29.7958C45.9519 29.7958 46.4818 29.5763 46.8725 29.1856C47.2632 28.7949 47.4827 28.265 47.4827 27.7125V23.9981C50.1678 27.0356 51.6497 30.9499 51.6494 35.004C51.6498 35.6167 51.6131 36.2289 51.5395 36.8371C51.4735 37.3855 51.6277 37.9377 51.9683 38.3725C52.3089 38.8073 52.8081 39.0893 53.3563 39.1565C53.4407 39.1662 53.5257 39.171 53.6106 39.1707C54.1193 39.17 54.6102 38.9832 54.9906 38.6456C55.371 38.3079 55.6147 37.8426 55.6757 37.3376C55.77 36.5634 55.8169 35.7841 55.816 35.0041C55.8132 30.0329 54.0264 25.2278 50.7806 21.4625H53.7327Z" fill="white"/>
</svg>
